<mxfile host="app.diagrams.net" modified="2020-08-14T12:49:18.051Z" agent="5.0 (X11)" etag="7E5EVCJC4OzPlamZHXAa" version="13.6.2" type="github">
  <diagram name="Page-1" id="9f46799a-70d6-7492-0946-bef42562c5a5">
    <mxGraphModel dx="1350" dy="738" grid="1" gridSize="10" guides="1" tooltips="1" connect="1" arrows="1" fold="1" page="1" pageScale="1" pageWidth="1100" pageHeight="850" background="#ffffff" math="0" shadow="0">
      <root>
        <mxCell id="0" />
        <mxCell id="1" parent="0" />
        <mxCell id="78961159f06e98e8-17" value="elfi.ROMC" style="swimlane;html=1;fontStyle=1;align=center;verticalAlign=top;childLayout=stackLayout;horizontal=1;startSize=26;horizontalStack=0;resizeParent=1;resizeLast=0;collapsible=1;marginBottom=0;swimlaneFillColor=#ffffff;rounded=0;shadow=0;comic=0;labelBackgroundColor=none;strokeWidth=1;fillColor=#dae8fc;fontFamily=Helvetica;fontSize=12;strokeColor=#6c8ebf;dashed=1;perimeterSpacing=0;dashPattern=1 2;" parent="1" vertex="1">
          <mxGeometry x="100" y="10" width="300" height="780" as="geometry" />
        </mxCell>
        <mxCell id="78961159f06e98e8-21" value="+ model: elfi.Model" style="text;html=1;strokeColor=none;fillColor=none;align=left;verticalAlign=top;spacingLeft=4;spacingRight=4;whiteSpace=wrap;overflow=hidden;rotatable=0;points=[[0,0.5],[1,0.5]];portConstraint=eastwest;fontFamily=Helvetica;dashed=1;perimeterSpacing=0;strokeWidth=1;dashPattern=1 2;" parent="78961159f06e98e8-17" vertex="1">
          <mxGeometry y="26" width="300" height="26" as="geometry" />
        </mxCell>
        <mxCell id="78961159f06e98e8-23" value="+ model_prior: elfi.ModelPrior" style="text;html=1;strokeColor=none;fillColor=none;align=left;verticalAlign=top;spacingLeft=4;spacingRight=4;whiteSpace=wrap;overflow=hidden;rotatable=0;points=[[0,0.5],[1,0.5]];portConstraint=eastwest;fontFamily=Helvetica;dashed=1;perimeterSpacing=0;strokeWidth=1;dashPattern=1 2;" parent="78961159f06e98e8-17" vertex="1">
          <mxGeometry y="52" width="300" height="26" as="geometry" />
        </mxCell>
        <mxCell id="78961159f06e98e8-25" value="+ method_state: Dict" style="text;html=1;strokeColor=none;fillColor=none;align=left;verticalAlign=top;spacingLeft=4;spacingRight=4;whiteSpace=wrap;overflow=hidden;rotatable=0;points=[[0,0.5],[1,0.5]];portConstraint=eastwest;fontFamily=Helvetica;dashed=1;perimeterSpacing=0;strokeWidth=1;dashPattern=1 2;" parent="78961159f06e98e8-17" vertex="1">
          <mxGeometry y="78" width="300" height="26" as="geometry" />
        </mxCell>
        <mxCell id="78961159f06e98e8-26" value="+ inference_args: Dict" style="text;html=1;strokeColor=none;fillColor=none;align=left;verticalAlign=top;spacingLeft=4;spacingRight=4;whiteSpace=wrap;overflow=hidden;rotatable=0;points=[[0,0.5],[1,0.5]];portConstraint=eastwest;fontFamily=Helvetica;dashed=1;perimeterSpacing=0;strokeWidth=1;dashPattern=1 2;" parent="78961159f06e98e8-17" vertex="1">
          <mxGeometry y="104" width="300" height="26" as="geometry" />
        </mxCell>
        <mxCell id="78961159f06e98e8-24" value="+ optim_problems: List[OptimisationProblem]" style="text;html=1;strokeColor=none;fillColor=none;align=left;verticalAlign=top;spacingLeft=4;spacingRight=4;whiteSpace=wrap;overflow=hidden;rotatable=0;points=[[0,0.5],[1,0.5]];portConstraint=eastwest;fontFamily=Helvetica;dashed=1;perimeterSpacing=0;strokeWidth=1;dashPattern=1 2;" parent="78961159f06e98e8-17" vertex="1">
          <mxGeometry y="130" width="300" height="26" as="geometry" />
        </mxCell>
        <mxCell id="7R6cqXsmupmu4rJpE5mC-2" value="&lt;font face=&quot;Helvetica&quot;&gt;+ det_funcs: List[Callable]&lt;/font&gt;" style="text;html=1;strokeColor=none;fillColor=none;align=left;verticalAlign=top;spacingLeft=4;spacingRight=4;whiteSpace=wrap;overflow=hidden;rotatable=0;points=[[0,0.5],[1,0.5]];portConstraint=eastwest;fontFamily=Garamond;dashed=1;perimeterSpacing=0;strokeWidth=1;dashPattern=1 2;" vertex="1" parent="78961159f06e98e8-17">
          <mxGeometry y="156" width="300" height="26" as="geometry" />
        </mxCell>
        <mxCell id="7R6cqXsmupmu4rJpE5mC-3" value="&lt;font face=&quot;Helvetica&quot;&gt;+ attempted: List[Boolean]&lt;/font&gt;" style="text;html=1;strokeColor=none;fillColor=none;align=left;verticalAlign=top;spacingLeft=4;spacingRight=4;whiteSpace=wrap;overflow=hidden;rotatable=0;points=[[0,0.5],[1,0.5]];portConstraint=eastwest;fontFamily=Garamond;dashed=1;perimeterSpacing=0;strokeWidth=1;dashPattern=1 2;" vertex="1" parent="78961159f06e98e8-17">
          <mxGeometry y="182" width="300" height="26" as="geometry" />
        </mxCell>
        <mxCell id="7R6cqXsmupmu4rJpE5mC-4" value="&lt;font face=&quot;Helvetica&quot;&gt;+ solved: List[Boolean]&lt;/font&gt;" style="text;html=1;strokeColor=none;fillColor=none;align=left;verticalAlign=top;spacingLeft=4;spacingRight=4;whiteSpace=wrap;overflow=hidden;rotatable=0;points=[[0,0.5],[1,0.5]];portConstraint=eastwest;fontFamily=Garamond;dashed=1;perimeterSpacing=0;strokeWidth=1;dashPattern=1 2;" vertex="1" parent="78961159f06e98e8-17">
          <mxGeometry y="208" width="300" height="26" as="geometry" />
        </mxCell>
        <mxCell id="7R6cqXsmupmu4rJpE5mC-5" value="&lt;font face=&quot;Helvetica&quot;&gt;+ accepted: List[Boolean]&lt;/font&gt;" style="text;html=1;strokeColor=none;fillColor=none;align=left;verticalAlign=top;spacingLeft=4;spacingRight=4;whiteSpace=wrap;overflow=hidden;rotatable=0;points=[[0,0.5],[1,0.5]];portConstraint=eastwest;fontFamily=Garamond;dashed=1;perimeterSpacing=0;strokeWidth=1;dashPattern=1 2;" vertex="1" parent="78961159f06e98e8-17">
          <mxGeometry y="234" width="300" height="26" as="geometry" />
        </mxCell>
        <mxCell id="7R6cqXsmupmu4rJpE5mC-6" value="&lt;font face=&quot;Helvetica&quot;&gt;+ computed_BB: List[Boolean]&lt;/font&gt;" style="text;html=1;strokeColor=none;fillColor=none;align=left;verticalAlign=top;spacingLeft=4;spacingRight=4;whiteSpace=wrap;overflow=hidden;rotatable=0;points=[[0,0.5],[1,0.5]];portConstraint=eastwest;fontFamily=Garamond;dashed=1;perimeterSpacing=0;strokeWidth=1;dashPattern=1 2;" vertex="1" parent="78961159f06e98e8-17">
          <mxGeometry y="260" width="300" height="26" as="geometry" />
        </mxCell>
        <mxCell id="78961159f06e98e8-19" value="" style="line;html=1;strokeWidth=1;fillColor=none;align=left;verticalAlign=middle;spacingTop=-1;spacingLeft=3;spacingRight=3;rotatable=0;labelPosition=right;points=[];portConstraint=eastwest;fontFamily=Helvetica;dashed=1;perimeterSpacing=0;dashPattern=1 2;" parent="78961159f06e98e8-17" vertex="1">
          <mxGeometry y="286" width="300" height="12" as="geometry" />
        </mxCell>
        <mxCell id="78961159f06e98e8-27" value="- _sample_nuisance" style="text;html=1;strokeColor=none;fillColor=none;align=left;verticalAlign=top;spacingLeft=4;spacingRight=4;whiteSpace=wrap;overflow=hidden;rotatable=0;points=[[0,0.5],[1,0.5]];portConstraint=eastwest;fontFamily=Helvetica;dashed=1;perimeterSpacing=0;strokeWidth=1;dashPattern=1 2;" parent="78961159f06e98e8-17" vertex="1">
          <mxGeometry y="298" width="300" height="20" as="geometry" />
        </mxCell>
        <mxCell id="lIrlsjn1nVPD_l0tQjsn-36" value="- _define_optim_problems" style="text;html=1;strokeColor=none;fillColor=none;align=left;verticalAlign=top;spacingLeft=4;spacingRight=4;whiteSpace=wrap;overflow=hidden;rotatable=0;points=[[0,0.5],[1,0.5]];portConstraint=eastwest;fontFamily=Helvetica;dashed=1;perimeterSpacing=0;strokeWidth=1;dashPattern=1 2;" parent="78961159f06e98e8-17" vertex="1">
          <mxGeometry y="318" width="300" height="20" as="geometry" />
        </mxCell>
        <mxCell id="lIrlsjn1nVPD_l0tQjsn-37" value="- _solve_gradients" style="text;html=1;strokeColor=none;fillColor=none;align=left;verticalAlign=top;spacingLeft=4;spacingRight=4;whiteSpace=wrap;overflow=hidden;rotatable=0;points=[[0,0.5],[1,0.5]];portConstraint=eastwest;fontFamily=Helvetica;dashed=1;perimeterSpacing=0;strokeWidth=1;dashPattern=1 2;" parent="78961159f06e98e8-17" vertex="1">
          <mxGeometry y="338" width="300" height="26" as="geometry" />
        </mxCell>
        <mxCell id="lIrlsjn1nVPD_l0tQjsn-38" value="- _solve_bo" style="text;html=1;strokeColor=none;fillColor=none;align=left;verticalAlign=top;spacingLeft=4;spacingRight=4;whiteSpace=wrap;overflow=hidden;rotatable=0;points=[[0,0.5],[1,0.5]];portConstraint=eastwest;fontFamily=Helvetica;dashed=1;perimeterSpacing=0;strokeWidth=1;dashPattern=1 2;" parent="78961159f06e98e8-17" vertex="1">
          <mxGeometry y="364" width="300" height="26" as="geometry" />
        </mxCell>
        <mxCell id="7R6cqXsmupmu4rJpE5mC-1" value="- _compute_eps" style="text;html=1;strokeColor=none;fillColor=none;align=left;verticalAlign=top;spacingLeft=4;spacingRight=4;whiteSpace=wrap;overflow=hidden;rotatable=0;points=[[0,0.5],[1,0.5]];portConstraint=eastwest;fontFamily=Helvetica;dashed=1;perimeterSpacing=0;strokeWidth=1;dashPattern=1 2;" vertex="1" parent="78961159f06e98e8-17">
          <mxGeometry y="390" width="300" height="26" as="geometry" />
        </mxCell>
        <mxCell id="lIrlsjn1nVPD_l0tQjsn-39" value="- _filter_solutions" style="text;html=1;strokeColor=none;fillColor=none;align=left;verticalAlign=top;spacingLeft=4;spacingRight=4;whiteSpace=wrap;overflow=hidden;rotatable=0;points=[[0,0.5],[1,0.5]];portConstraint=eastwest;fontFamily=Helvetica;dashed=1;perimeterSpacing=0;strokeWidth=1;dashPattern=1 2;" parent="78961159f06e98e8-17" vertex="1">
          <mxGeometry y="416" width="300" height="26" as="geometry" />
        </mxCell>
        <mxCell id="lIrlsjn1nVPD_l0tQjsn-40" value="- _estimate_regions" style="text;html=1;strokeColor=none;fillColor=none;align=left;verticalAlign=top;spacingLeft=4;spacingRight=4;whiteSpace=wrap;overflow=hidden;rotatable=0;points=[[0,0.5],[1,0.5]];portConstraint=eastwest;fontFamily=Helvetica;dashed=1;perimeterSpacing=0;strokeWidth=1;dashPattern=1 2;" parent="78961159f06e98e8-17" vertex="1">
          <mxGeometry y="442" width="300" height="26" as="geometry" />
        </mxCell>
        <mxCell id="lIrlsjn1nVPD_l0tQjsn-41" value="- _define_posterior" style="text;html=1;strokeColor=none;fillColor=none;align=left;verticalAlign=top;spacingLeft=4;spacingRight=4;whiteSpace=wrap;overflow=hidden;rotatable=0;points=[[0,0.5],[1,0.5]];portConstraint=eastwest;fontFamily=Helvetica;dashed=1;perimeterSpacing=0;strokeWidth=1;dashPattern=1 2;" parent="78961159f06e98e8-17" vertex="1">
          <mxGeometry y="468" width="300" height="26" as="geometry" />
        </mxCell>
        <mxCell id="lIrlsjn1nVPD_l0tQjsn-43" value="+ solve_problems" style="text;html=1;strokeColor=none;fillColor=none;align=left;verticalAlign=top;spacingLeft=4;spacingRight=4;whiteSpace=wrap;overflow=hidden;rotatable=0;points=[[0,0.5],[1,0.5]];portConstraint=eastwest;fontFamily=Helvetica;dashed=1;perimeterSpacing=0;strokeWidth=1;dashPattern=1 2;" parent="78961159f06e98e8-17" vertex="1">
          <mxGeometry y="494" width="300" height="26" as="geometry" />
        </mxCell>
        <mxCell id="lIrlsjn1nVPD_l0tQjsn-44" value="+ estimate_regions" style="text;html=1;strokeColor=none;fillColor=none;align=left;verticalAlign=top;spacingLeft=4;spacingRight=4;whiteSpace=wrap;overflow=hidden;rotatable=0;points=[[0,0.5],[1,0.5]];portConstraint=eastwest;fontFamily=Helvetica;dashed=1;perimeterSpacing=0;strokeWidth=1;dashPattern=1 2;" parent="78961159f06e98e8-17" vertex="1">
          <mxGeometry y="520" width="300" height="26" as="geometry" />
        </mxCell>
        <mxCell id="lIrlsjn1nVPD_l0tQjsn-45" value="+ fit_posterior" style="text;html=1;strokeColor=none;fillColor=none;align=left;verticalAlign=top;spacingLeft=4;spacingRight=4;whiteSpace=wrap;overflow=hidden;rotatable=0;points=[[0,0.5],[1,0.5]];portConstraint=eastwest;fontFamily=Helvetica;dashed=1;perimeterSpacing=0;strokeWidth=1;dashPattern=1 2;" parent="78961159f06e98e8-17" vertex="1">
          <mxGeometry y="546" width="300" height="26" as="geometry" />
        </mxCell>
        <mxCell id="lIrlsjn1nVPD_l0tQjsn-46" value="+ sample" style="text;html=1;strokeColor=none;fillColor=none;align=left;verticalAlign=top;spacingLeft=4;spacingRight=4;whiteSpace=wrap;overflow=hidden;rotatable=0;points=[[0,0.5],[1,0.5]];portConstraint=eastwest;fontFamily=Helvetica;dashed=1;perimeterSpacing=0;strokeWidth=1;dashPattern=1 2;" parent="78961159f06e98e8-17" vertex="1">
          <mxGeometry y="572" width="300" height="26" as="geometry" />
        </mxCell>
        <mxCell id="lIrlsjn1nVPD_l0tQjsn-48" value="+ compute_expectation" style="text;html=1;strokeColor=none;fillColor=none;align=left;verticalAlign=top;spacingLeft=4;spacingRight=4;whiteSpace=wrap;overflow=hidden;rotatable=0;points=[[0,0.5],[1,0.5]];portConstraint=eastwest;fontFamily=Helvetica;dashed=1;perimeterSpacing=0;strokeWidth=1;dashPattern=1 2;" parent="78961159f06e98e8-17" vertex="1">
          <mxGeometry y="598" width="300" height="26" as="geometry" />
        </mxCell>
        <mxCell id="lIrlsjn1nVPD_l0tQjsn-49" value="+ eval_unnorm_posterior" style="text;html=1;strokeColor=none;fillColor=none;align=left;verticalAlign=top;spacingLeft=4;spacingRight=4;whiteSpace=wrap;overflow=hidden;rotatable=0;points=[[0,0.5],[1,0.5]];portConstraint=eastwest;fontFamily=Helvetica;dashed=1;perimeterSpacing=0;strokeWidth=1;dashPattern=1 2;" parent="78961159f06e98e8-17" vertex="1">
          <mxGeometry y="624" width="300" height="26" as="geometry" />
        </mxCell>
        <mxCell id="lIrlsjn1nVPD_l0tQjsn-50" value="+ eval_posterior" style="text;html=1;strokeColor=none;fillColor=none;align=left;verticalAlign=top;spacingLeft=4;spacingRight=4;whiteSpace=wrap;overflow=hidden;rotatable=0;points=[[0,0.5],[1,0.5]];portConstraint=eastwest;fontFamily=Helvetica;dashed=1;perimeterSpacing=0;strokeWidth=1;dashPattern=1 2;" parent="78961159f06e98e8-17" vertex="1">
          <mxGeometry y="650" width="300" height="26" as="geometry" />
        </mxCell>
        <mxCell id="lIrlsjn1nVPD_l0tQjsn-51" value="+ compute_ess" style="text;html=1;strokeColor=none;fillColor=none;align=left;verticalAlign=top;spacingLeft=4;spacingRight=4;whiteSpace=wrap;overflow=hidden;rotatable=0;points=[[0,0.5],[1,0.5]];portConstraint=eastwest;fontFamily=Helvetica;dashed=1;perimeterSpacing=0;strokeWidth=1;dashPattern=1 2;" parent="78961159f06e98e8-17" vertex="1">
          <mxGeometry y="676" width="300" height="26" as="geometry" />
        </mxCell>
        <mxCell id="lIrlsjn1nVPD_l0tQjsn-52" value="+ compute_divergence" style="text;html=1;strokeColor=none;fillColor=none;align=left;verticalAlign=top;spacingLeft=4;spacingRight=4;whiteSpace=wrap;overflow=hidden;rotatable=0;points=[[0,0.5],[1,0.5]];portConstraint=eastwest;fontFamily=Helvetica;dashed=1;perimeterSpacing=0;strokeWidth=1;dashPattern=1 2;" parent="78961159f06e98e8-17" vertex="1">
          <mxGeometry y="702" width="300" height="26" as="geometry" />
        </mxCell>
        <mxCell id="lIrlsjn1nVPD_l0tQjsn-54" value="+ distance_hist" style="text;html=1;strokeColor=none;fillColor=none;align=left;verticalAlign=top;spacingLeft=4;spacingRight=4;whiteSpace=wrap;overflow=hidden;rotatable=0;points=[[0,0.5],[1,0.5]];portConstraint=eastwest;fontFamily=Helvetica;dashed=1;perimeterSpacing=0;strokeWidth=1;dashPattern=1 2;" parent="78961159f06e98e8-17" vertex="1">
          <mxGeometry y="728" width="300" height="26" as="geometry" />
        </mxCell>
        <mxCell id="lIrlsjn1nVPD_l0tQjsn-53" value="+ visualize_region" style="text;html=1;strokeColor=none;fillColor=none;align=left;verticalAlign=top;spacingLeft=4;spacingRight=4;whiteSpace=wrap;overflow=hidden;rotatable=0;points=[[0,0.5],[1,0.5]];portConstraint=eastwest;fontFamily=Helvetica;dashed=1;perimeterSpacing=0;strokeWidth=1;dashPattern=1 2;" parent="78961159f06e98e8-17" vertex="1">
          <mxGeometry y="754" width="300" height="26" as="geometry" />
        </mxCell>
        <mxCell id="lIrlsjn1nVPD_l0tQjsn-4" value="elfi.RomcOptimisationResult" style="swimlane;html=1;fontStyle=1;align=center;verticalAlign=top;childLayout=stackLayout;horizontal=1;startSize=26;horizontalStack=0;resizeParent=1;resizeLast=0;collapsible=1;marginBottom=0;swimlaneFillColor=#ffffff;rounded=0;shadow=0;comic=0;labelBackgroundColor=none;strokeWidth=1;fillColor=#dae8fc;fontFamily=Helvetica;fontSize=12;strokeColor=#6c8ebf;dashed=1;perimeterSpacing=0;dashPattern=1 2;" parent="1" vertex="1">
          <mxGeometry x="690" y="490" width="220" height="158" as="geometry" />
        </mxCell>
        <mxCell id="lIrlsjn1nVPD_l0tQjsn-5" value="+ f_min" style="text;html=1;strokeColor=none;fillColor=none;align=left;verticalAlign=top;spacingLeft=4;spacingRight=4;whiteSpace=wrap;overflow=hidden;rotatable=0;points=[[0,0.5],[1,0.5]];portConstraint=eastwest;fontFamily=Helvetica;dashed=1;perimeterSpacing=0;strokeWidth=1;dashPattern=1 2;" parent="lIrlsjn1nVPD_l0tQjsn-4" vertex="1">
          <mxGeometry y="26" width="220" height="26" as="geometry" />
        </mxCell>
        <mxCell id="lIrlsjn1nVPD_l0tQjsn-6" value="+ x_min" style="text;html=1;strokeColor=none;fillColor=none;align=left;verticalAlign=top;spacingLeft=4;spacingRight=4;whiteSpace=wrap;overflow=hidden;rotatable=0;points=[[0,0.5],[1,0.5]];portConstraint=eastwest;fontFamily=Helvetica;dashed=1;perimeterSpacing=0;strokeWidth=1;dashPattern=1 2;" parent="lIrlsjn1nVPD_l0tQjsn-4" vertex="1">
          <mxGeometry y="52" width="220" height="26" as="geometry" />
        </mxCell>
        <mxCell id="lIrlsjn1nVPD_l0tQjsn-7" value="+ jac" style="text;html=1;strokeColor=none;fillColor=none;align=left;verticalAlign=top;spacingLeft=4;spacingRight=4;whiteSpace=wrap;overflow=hidden;rotatable=0;points=[[0,0.5],[1,0.5]];portConstraint=eastwest;fontFamily=Helvetica;dashed=1;perimeterSpacing=0;strokeWidth=1;dashPattern=1 2;" parent="lIrlsjn1nVPD_l0tQjsn-4" vertex="1">
          <mxGeometry y="78" width="220" height="26" as="geometry" />
        </mxCell>
        <mxCell id="lIrlsjn1nVPD_l0tQjsn-8" value="+ hess" style="text;html=1;strokeColor=none;fillColor=none;align=left;verticalAlign=top;spacingLeft=4;spacingRight=4;whiteSpace=wrap;overflow=hidden;rotatable=0;points=[[0,0.5],[1,0.5]];portConstraint=eastwest;fontFamily=Helvetica;dashed=1;perimeterSpacing=0;strokeWidth=1;dashPattern=1 2;" parent="lIrlsjn1nVPD_l0tQjsn-4" vertex="1">
          <mxGeometry y="104" width="220" height="26" as="geometry" />
        </mxCell>
        <mxCell id="lIrlsjn1nVPD_l0tQjsn-9" value="+ hess_inv" style="text;html=1;strokeColor=none;fillColor=none;align=left;verticalAlign=top;spacingLeft=4;spacingRight=4;whiteSpace=wrap;overflow=hidden;rotatable=0;points=[[0,0.5],[1,0.5]];portConstraint=eastwest;fontFamily=Helvetica;dashed=1;perimeterSpacing=0;strokeWidth=1;dashPattern=1 2;" parent="lIrlsjn1nVPD_l0tQjsn-4" vertex="1">
          <mxGeometry y="130" width="220" height="26" as="geometry" />
        </mxCell>
        <mxCell id="lIrlsjn1nVPD_l0tQjsn-56" value="elfi.RegionConstructor" style="swimlane;html=1;fontStyle=1;align=center;verticalAlign=top;childLayout=stackLayout;horizontal=1;startSize=26;horizontalStack=0;resizeParent=1;resizeLast=0;collapsible=1;marginBottom=0;swimlaneFillColor=#ffffff;rounded=0;shadow=0;comic=0;labelBackgroundColor=none;strokeWidth=1;fillColor=#dae8fc;fontFamily=Helvetica;fontSize=12;strokeColor=#6c8ebf;dashed=1;perimeterSpacing=0;dashPattern=1 2;" parent="1" vertex="1">
          <mxGeometry x="710" y="280" width="170" height="190" as="geometry" />
        </mxCell>
        <mxCell id="lIrlsjn1nVPD_l0tQjsn-57" value="+ res: OptimisationResult" style="text;html=1;strokeColor=none;fillColor=none;align=left;verticalAlign=top;spacingLeft=4;spacingRight=4;whiteSpace=wrap;overflow=hidden;rotatable=0;points=[[0,0.5],[1,0.5]];portConstraint=eastwest;fontFamily=Helvetica;dashed=1;perimeterSpacing=0;strokeWidth=1;dashPattern=1 2;" parent="lIrlsjn1nVPD_l0tQjsn-56" vertex="1">
          <mxGeometry y="26" width="170" height="26" as="geometry" />
        </mxCell>
        <mxCell id="lIrlsjn1nVPD_l0tQjsn-58" value="+ func: Callable" style="text;html=1;strokeColor=none;fillColor=none;align=left;verticalAlign=top;spacingLeft=4;spacingRight=4;whiteSpace=wrap;overflow=hidden;rotatable=0;points=[[0,0.5],[1,0.5]];portConstraint=eastwest;fontFamily=Helvetica;dashed=1;perimeterSpacing=0;strokeWidth=1;dashPattern=1 2;" parent="lIrlsjn1nVPD_l0tQjsn-56" vertex="1">
          <mxGeometry y="52" width="170" height="26" as="geometry" />
        </mxCell>
        <mxCell id="lIrlsjn1nVPD_l0tQjsn-59" value="+ eps: float" style="text;html=1;strokeColor=none;fillColor=none;align=left;verticalAlign=top;spacingLeft=4;spacingRight=4;whiteSpace=wrap;overflow=hidden;rotatable=0;points=[[0,0.5],[1,0.5]];portConstraint=eastwest;fontFamily=Helvetica;dashed=1;perimeterSpacing=0;strokeWidth=1;dashPattern=1 2;" parent="lIrlsjn1nVPD_l0tQjsn-56" vertex="1">
          <mxGeometry y="78" width="170" height="26" as="geometry" />
        </mxCell>
        <mxCell id="lIrlsjn1nVPD_l0tQjsn-60" value="+ lim: float" style="text;html=1;strokeColor=none;fillColor=none;align=left;verticalAlign=top;spacingLeft=4;spacingRight=4;whiteSpace=wrap;overflow=hidden;rotatable=0;points=[[0,0.5],[1,0.5]];portConstraint=eastwest;fontFamily=Helvetica;dashed=1;perimeterSpacing=0;strokeWidth=1;dashPattern=1 2;" parent="lIrlsjn1nVPD_l0tQjsn-56" vertex="1">
          <mxGeometry y="104" width="170" height="26" as="geometry" />
        </mxCell>
        <mxCell id="lIrlsjn1nVPD_l0tQjsn-61" value="+ step: float" style="text;html=1;strokeColor=none;fillColor=none;align=left;verticalAlign=top;spacingLeft=4;spacingRight=4;whiteSpace=wrap;overflow=hidden;rotatable=0;points=[[0,0.5],[1,0.5]];portConstraint=eastwest;fontFamily=Helvetica;dashed=1;perimeterSpacing=0;strokeWidth=1;dashPattern=1 2;" parent="lIrlsjn1nVPD_l0tQjsn-56" vertex="1">
          <mxGeometry y="130" width="170" height="26" as="geometry" />
        </mxCell>
        <mxCell id="lIrlsjn1nVPD_l0tQjsn-63" value="" style="line;html=1;strokeWidth=1;fillColor=none;align=left;verticalAlign=middle;spacingTop=-1;spacingLeft=3;spacingRight=3;rotatable=0;labelPosition=right;points=[];portConstraint=eastwest;fontFamily=Helvetica;dashed=1;perimeterSpacing=0;dashPattern=1 2;" parent="lIrlsjn1nVPD_l0tQjsn-56" vertex="1">
          <mxGeometry y="156" width="170" height="8" as="geometry" />
        </mxCell>
        <mxCell id="lIrlsjn1nVPD_l0tQjsn-64" value="+ build" style="text;html=1;strokeColor=none;fillColor=none;align=left;verticalAlign=top;spacingLeft=4;spacingRight=4;whiteSpace=wrap;overflow=hidden;rotatable=0;points=[[0,0.5],[1,0.5]];portConstraint=eastwest;fontFamily=Helvetica;dashed=1;perimeterSpacing=0;strokeWidth=1;dashPattern=1 2;" parent="lIrlsjn1nVPD_l0tQjsn-56" vertex="1">
          <mxGeometry y="164" width="170" height="26" as="geometry" />
        </mxCell>
        <mxCell id="lIrlsjn1nVPD_l0tQjsn-22" value="elfi.RomcPosterior" style="swimlane;html=1;fontStyle=1;align=center;verticalAlign=top;childLayout=stackLayout;horizontal=1;startSize=26;horizontalStack=0;resizeParent=1;resizeLast=0;collapsible=1;marginBottom=0;swimlaneFillColor=#ffffff;rounded=0;shadow=0;comic=0;labelBackgroundColor=none;strokeWidth=1;fillColor=#dae8fc;fontFamily=Helvetica;fontSize=12;strokeColor=#6c8ebf;dashed=1;perimeterSpacing=0;dashPattern=1 2;" parent="1" vertex="1">
          <mxGeometry x="450" y="310" width="230" height="300" as="geometry" />
        </mxCell>
        <mxCell id="lIrlsjn1nVPD_l0tQjsn-23" value="+ regions: List[NDimBoundingBox]" style="text;html=1;strokeColor=none;fillColor=none;align=left;verticalAlign=top;spacingLeft=4;spacingRight=4;whiteSpace=wrap;overflow=hidden;rotatable=0;points=[[0,0.5],[1,0.5]];portConstraint=eastwest;fontFamily=Helvetica;dashed=1;perimeterSpacing=0;strokeWidth=1;dashPattern=1 2;" parent="lIrlsjn1nVPD_l0tQjsn-22" vertex="1">
          <mxGeometry y="26" width="230" height="26" as="geometry" />
        </mxCell>
        <mxCell id="lIrlsjn1nVPD_l0tQjsn-24" value="+ funcs: List[Callables]" style="text;html=1;strokeColor=none;fillColor=none;align=left;verticalAlign=top;spacingLeft=4;spacingRight=4;whiteSpace=wrap;overflow=hidden;rotatable=0;points=[[0,0.5],[1,0.5]];portConstraint=eastwest;fontFamily=Helvetica;dashed=1;perimeterSpacing=0;strokeWidth=1;dashPattern=1 2;" parent="lIrlsjn1nVPD_l0tQjsn-22" vertex="1">
          <mxGeometry y="52" width="230" height="26" as="geometry" />
        </mxCell>
        <mxCell id="lIrlsjn1nVPD_l0tQjsn-25" value="+ prior: ModelPrior" style="text;html=1;strokeColor=none;fillColor=none;align=left;verticalAlign=top;spacingLeft=4;spacingRight=4;whiteSpace=wrap;overflow=hidden;rotatable=0;points=[[0,0.5],[1,0.5]];portConstraint=eastwest;fontFamily=Helvetica;dashed=1;perimeterSpacing=0;strokeWidth=1;dashPattern=1 2;" parent="lIrlsjn1nVPD_l0tQjsn-22" vertex="1">
          <mxGeometry y="78" width="230" height="26" as="geometry" />
        </mxCell>
        <mxCell id="lIrlsjn1nVPD_l0tQjsn-26" value="+ eps:float" style="text;html=1;strokeColor=none;fillColor=none;align=left;verticalAlign=top;spacingLeft=4;spacingRight=4;whiteSpace=wrap;overflow=hidden;rotatable=0;points=[[0,0.5],[1,0.5]];portConstraint=eastwest;fontFamily=Helvetica;dashed=1;perimeterSpacing=0;strokeWidth=1;dashPattern=1 2;" parent="lIrlsjn1nVPD_l0tQjsn-22" vertex="1">
          <mxGeometry y="104" width="230" height="26" as="geometry" />
        </mxCell>
        <mxCell id="lIrlsjn1nVPD_l0tQjsn-27" value="+ partition" style="text;html=1;strokeColor=none;fillColor=none;align=left;verticalAlign=top;spacingLeft=4;spacingRight=4;whiteSpace=wrap;overflow=hidden;rotatable=0;points=[[0,0.5],[1,0.5]];portConstraint=eastwest;fontFamily=Helvetica;dashed=1;perimeterSpacing=0;strokeWidth=1;dashPattern=1 2;" parent="lIrlsjn1nVPD_l0tQjsn-22" vertex="1">
          <mxGeometry y="130" width="230" height="26" as="geometry" />
        </mxCell>
        <mxCell id="lIrlsjn1nVPD_l0tQjsn-28" value="" style="line;html=1;strokeWidth=1;fillColor=none;align=left;verticalAlign=middle;spacingTop=-1;spacingLeft=3;spacingRight=3;rotatable=0;labelPosition=right;points=[];portConstraint=eastwest;fontFamily=Helvetica;dashed=1;perimeterSpacing=0;dashPattern=1 2;" parent="lIrlsjn1nVPD_l0tQjsn-22" vertex="1">
          <mxGeometry y="156" width="230" height="14" as="geometry" />
        </mxCell>
        <mxCell id="lIrlsjn1nVPD_l0tQjsn-71" value="- _approximate_partition" style="text;html=1;strokeColor=none;fillColor=none;align=left;verticalAlign=top;spacingLeft=4;spacingRight=4;whiteSpace=wrap;overflow=hidden;rotatable=0;points=[[0,0.5],[1,0.5]];portConstraint=eastwest;fontFamily=Helvetica;dashed=1;perimeterSpacing=0;strokeWidth=1;dashPattern=1 2;" parent="lIrlsjn1nVPD_l0tQjsn-22" vertex="1">
          <mxGeometry y="170" width="230" height="26" as="geometry" />
        </mxCell>
        <mxCell id="lIrlsjn1nVPD_l0tQjsn-29" value="+ pdf" style="text;html=1;strokeColor=none;fillColor=none;align=left;verticalAlign=top;spacingLeft=4;spacingRight=4;whiteSpace=wrap;overflow=hidden;rotatable=0;points=[[0,0.5],[1,0.5]];portConstraint=eastwest;fontFamily=Helvetica;dashed=1;perimeterSpacing=0;strokeWidth=1;dashPattern=1 2;" parent="lIrlsjn1nVPD_l0tQjsn-22" vertex="1">
          <mxGeometry y="196" width="230" height="20" as="geometry" />
        </mxCell>
        <mxCell id="lIrlsjn1nVPD_l0tQjsn-30" value="+ sample" style="text;html=1;strokeColor=none;fillColor=none;align=left;verticalAlign=top;spacingLeft=4;spacingRight=4;whiteSpace=wrap;overflow=hidden;rotatable=0;points=[[0,0.5],[1,0.5]];portConstraint=eastwest;fontFamily=Helvetica;dashed=1;perimeterSpacing=0;strokeWidth=1;dashPattern=1 2;" parent="lIrlsjn1nVPD_l0tQjsn-22" vertex="1">
          <mxGeometry y="216" width="230" height="26" as="geometry" />
        </mxCell>
        <mxCell id="lIrlsjn1nVPD_l0tQjsn-69" value="+ compute_expectation" style="text;html=1;strokeColor=none;fillColor=none;align=left;verticalAlign=top;spacingLeft=4;spacingRight=4;whiteSpace=wrap;overflow=hidden;rotatable=0;points=[[0,0.5],[1,0.5]];portConstraint=eastwest;fontFamily=Helvetica;dashed=1;perimeterSpacing=0;strokeWidth=1;dashPattern=1 2;" parent="lIrlsjn1nVPD_l0tQjsn-22" vertex="1">
          <mxGeometry y="242" width="230" height="26" as="geometry" />
        </mxCell>
        <mxCell id="lIrlsjn1nVPD_l0tQjsn-70" value="+ visualise_region" style="text;html=1;strokeColor=none;fillColor=none;align=left;verticalAlign=top;spacingLeft=4;spacingRight=4;whiteSpace=wrap;overflow=hidden;rotatable=0;points=[[0,0.5],[1,0.5]];portConstraint=eastwest;fontFamily=Helvetica;dashed=1;perimeterSpacing=0;strokeWidth=1;dashPattern=1 2;" parent="lIrlsjn1nVPD_l0tQjsn-22" vertex="1">
          <mxGeometry y="268" width="230" height="26" as="geometry" />
        </mxCell>
        <mxCell id="78961159f06e98e8-43" value="elfi.OptimisationProblem" style="swimlane;html=1;fontStyle=1;align=center;verticalAlign=top;childLayout=stackLayout;horizontal=1;startSize=26;horizontalStack=0;resizeParent=1;resizeLast=0;collapsible=1;marginBottom=0;swimlaneFillColor=#ffffff;rounded=0;shadow=0;comic=0;labelBackgroundColor=none;strokeWidth=1;fillColor=#dae8fc;fontFamily=Helvetica;fontSize=12;strokeColor=#6c8ebf;dashed=1;perimeterSpacing=0;dashPattern=1 2;" parent="1" vertex="1">
          <mxGeometry x="450" y="30" width="230" height="216" as="geometry" />
        </mxCell>
        <mxCell id="78961159f06e98e8-45" value="+ surrogate_distance: Callable" style="text;html=1;strokeColor=none;fillColor=none;align=left;verticalAlign=top;spacingLeft=4;spacingRight=4;whiteSpace=wrap;overflow=hidden;rotatable=0;points=[[0,0.5],[1,0.5]];portConstraint=eastwest;fontFamily=Helvetica;dashed=1;perimeterSpacing=0;strokeWidth=1;dashPattern=1 2;" parent="78961159f06e98e8-43" vertex="1">
          <mxGeometry y="26" width="230" height="26" as="geometry" />
        </mxCell>
        <mxCell id="78961159f06e98e8-50" value="+ distance: Callable" style="text;html=1;strokeColor=none;fillColor=none;align=left;verticalAlign=top;spacingLeft=4;spacingRight=4;whiteSpace=wrap;overflow=hidden;rotatable=0;points=[[0,0.5],[1,0.5]];portConstraint=eastwest;fontFamily=Helvetica;dashed=1;perimeterSpacing=0;strokeWidth=1;dashPattern=1 2;" parent="78961159f06e98e8-43" vertex="1">
          <mxGeometry y="52" width="230" height="26" as="geometry" />
        </mxCell>
        <mxCell id="78961159f06e98e8-44" value="+ result: RomcOptimisationResult" style="text;html=1;strokeColor=none;fillColor=none;align=left;verticalAlign=top;spacingLeft=4;spacingRight=4;whiteSpace=wrap;overflow=hidden;rotatable=0;points=[[0,0.5],[1,0.5]];portConstraint=eastwest;fontFamily=Helvetica;dashed=1;perimeterSpacing=0;strokeWidth=1;dashPattern=1 2;" parent="78961159f06e98e8-43" vertex="1">
          <mxGeometry y="78" width="230" height="26" as="geometry" />
        </mxCell>
        <mxCell id="78961159f06e98e8-49" value="+ region: NDimBoundingBox" style="text;html=1;strokeColor=none;fillColor=none;align=left;verticalAlign=top;spacingLeft=4;spacingRight=4;whiteSpace=wrap;overflow=hidden;rotatable=0;points=[[0,0.5],[1,0.5]];portConstraint=eastwest;fontFamily=Helvetica;dashed=1;perimeterSpacing=0;strokeWidth=1;dashPattern=1 2;" parent="78961159f06e98e8-43" vertex="1">
          <mxGeometry y="104" width="230" height="26" as="geometry" />
        </mxCell>
        <mxCell id="78961159f06e98e8-51" value="" style="line;html=1;strokeWidth=1;fillColor=none;align=left;verticalAlign=middle;spacingTop=-1;spacingLeft=3;spacingRight=3;rotatable=0;labelPosition=right;points=[];portConstraint=eastwest;fontFamily=Helvetica;dashed=1;perimeterSpacing=0;dashPattern=1 2;" parent="78961159f06e98e8-43" vertex="1">
          <mxGeometry y="130" width="230" height="8" as="geometry" />
        </mxCell>
        <mxCell id="78961159f06e98e8-52" value="+ solve_gradients" style="text;html=1;strokeColor=none;fillColor=none;align=left;verticalAlign=top;spacingLeft=4;spacingRight=4;whiteSpace=wrap;overflow=hidden;rotatable=0;points=[[0,0.5],[1,0.5]];portConstraint=eastwest;fontFamily=Helvetica;dashed=1;perimeterSpacing=0;strokeWidth=1;dashPattern=1 2;" parent="78961159f06e98e8-43" vertex="1">
          <mxGeometry y="138" width="230" height="26" as="geometry" />
        </mxCell>
        <mxCell id="78961159f06e98e8-53" value="+ solve_bo" style="text;html=1;strokeColor=none;fillColor=none;align=left;verticalAlign=top;spacingLeft=4;spacingRight=4;whiteSpace=wrap;overflow=hidden;rotatable=0;points=[[0,0.5],[1,0.5]];portConstraint=eastwest;fontFamily=Helvetica;dashed=1;perimeterSpacing=0;strokeWidth=1;dashPattern=1 2;" parent="78961159f06e98e8-43" vertex="1">
          <mxGeometry y="164" width="230" height="26" as="geometry" />
        </mxCell>
        <mxCell id="lIrlsjn1nVPD_l0tQjsn-55" value="+ build_region()" style="text;html=1;strokeColor=none;fillColor=none;align=left;verticalAlign=top;spacingLeft=4;spacingRight=4;whiteSpace=wrap;overflow=hidden;rotatable=0;points=[[0,0.5],[1,0.5]];portConstraint=eastwest;fontFamily=Helvetica;dashed=1;perimeterSpacing=0;strokeWidth=1;dashPattern=1 2;" parent="78961159f06e98e8-43" vertex="1">
          <mxGeometry y="190" width="230" height="26" as="geometry" />
        </mxCell>
        <mxCell id="78961159f06e98e8-30" value="elfi.NDimBoundingBox" style="swimlane;html=1;fontStyle=1;align=center;verticalAlign=top;childLayout=stackLayout;horizontal=1;startSize=26;horizontalStack=0;resizeParent=1;resizeLast=0;collapsible=1;marginBottom=0;swimlaneFillColor=#ffffff;rounded=0;shadow=0;comic=0;labelBackgroundColor=none;strokeWidth=1;fillColor=#dae8fc;fontFamily=Helvetica;fontSize=12;strokeColor=#6c8ebf;dashed=1;perimeterSpacing=0;dashPattern=1 2;" parent="1" vertex="1">
          <mxGeometry x="715" y="17" width="170" height="242" as="geometry" />
        </mxCell>
        <mxCell id="78961159f06e98e8-31" value="+ center" style="text;html=1;strokeColor=none;fillColor=none;align=left;verticalAlign=top;spacingLeft=4;spacingRight=4;whiteSpace=wrap;overflow=hidden;rotatable=0;points=[[0,0.5],[1,0.5]];portConstraint=eastwest;fontFamily=Helvetica;dashed=1;perimeterSpacing=0;strokeWidth=1;dashPattern=1 2;" parent="78961159f06e98e8-30" vertex="1">
          <mxGeometry y="26" width="170" height="26" as="geometry" />
        </mxCell>
        <mxCell id="78961159f06e98e8-32" value="+ rotation" style="text;html=1;strokeColor=none;fillColor=none;align=left;verticalAlign=top;spacingLeft=4;spacingRight=4;whiteSpace=wrap;overflow=hidden;rotatable=0;points=[[0,0.5],[1,0.5]];portConstraint=eastwest;fontFamily=Helvetica;dashed=1;perimeterSpacing=0;strokeWidth=1;dashPattern=1 2;" parent="78961159f06e98e8-30" vertex="1">
          <mxGeometry y="52" width="170" height="26" as="geometry" />
        </mxCell>
        <mxCell id="78961159f06e98e8-33" value="+ limits" style="text;html=1;strokeColor=none;fillColor=none;align=left;verticalAlign=top;spacingLeft=4;spacingRight=4;whiteSpace=wrap;overflow=hidden;rotatable=0;points=[[0,0.5],[1,0.5]];portConstraint=eastwest;fontFamily=Helvetica;dashed=1;perimeterSpacing=0;strokeWidth=1;dashPattern=1 2;" parent="78961159f06e98e8-30" vertex="1">
          <mxGeometry y="78" width="170" height="26" as="geometry" />
        </mxCell>
        <mxCell id="lIrlsjn1nVPD_l0tQjsn-67" value="+ volume" style="text;html=1;strokeColor=none;fillColor=none;align=left;verticalAlign=top;spacingLeft=4;spacingRight=4;whiteSpace=wrap;overflow=hidden;rotatable=0;points=[[0,0.5],[1,0.5]];portConstraint=eastwest;fontFamily=Helvetica;dashed=1;perimeterSpacing=0;strokeWidth=1;dashPattern=1 2;" parent="78961159f06e98e8-30" vertex="1">
          <mxGeometry y="104" width="170" height="26" as="geometry" />
        </mxCell>
        <mxCell id="78961159f06e98e8-38" value="" style="line;html=1;strokeWidth=1;fillColor=none;align=left;verticalAlign=middle;spacingTop=-1;spacingLeft=3;spacingRight=3;rotatable=0;labelPosition=right;points=[];portConstraint=eastwest;fontFamily=Helvetica;dashed=1;perimeterSpacing=0;dashPattern=1 2;" parent="78961159f06e98e8-30" vertex="1">
          <mxGeometry y="130" width="170" height="8" as="geometry" />
        </mxCell>
        <mxCell id="78961159f06e98e8-39" value="+ contains" style="text;html=1;strokeColor=none;fillColor=none;align=left;verticalAlign=top;spacingLeft=4;spacingRight=4;whiteSpace=wrap;overflow=hidden;rotatable=0;points=[[0,0.5],[1,0.5]];portConstraint=eastwest;fontFamily=Helvetica;dashed=1;perimeterSpacing=0;strokeWidth=1;dashPattern=1 2;" parent="78961159f06e98e8-30" vertex="1">
          <mxGeometry y="138" width="170" height="26" as="geometry" />
        </mxCell>
        <mxCell id="78961159f06e98e8-40" value="+ sample" style="text;html=1;strokeColor=none;fillColor=none;align=left;verticalAlign=top;spacingLeft=4;spacingRight=4;whiteSpace=wrap;overflow=hidden;rotatable=0;points=[[0,0.5],[1,0.5]];portConstraint=eastwest;fontFamily=Helvetica;dashed=1;perimeterSpacing=0;strokeWidth=1;dashPattern=1 2;" parent="78961159f06e98e8-30" vertex="1">
          <mxGeometry y="164" width="170" height="26" as="geometry" />
        </mxCell>
        <mxCell id="78961159f06e98e8-42" value="+ pdf" style="text;html=1;strokeColor=none;fillColor=none;align=left;verticalAlign=top;spacingLeft=4;spacingRight=4;whiteSpace=wrap;overflow=hidden;rotatable=0;points=[[0,0.5],[1,0.5]];portConstraint=eastwest;fontFamily=Helvetica;dashed=1;perimeterSpacing=0;strokeWidth=1;dashPattern=1 2;" parent="78961159f06e98e8-30" vertex="1">
          <mxGeometry y="190" width="170" height="26" as="geometry" />
        </mxCell>
        <mxCell id="lIrlsjn1nVPD_l0tQjsn-68" value="+ plot" style="text;html=1;strokeColor=none;fillColor=none;align=left;verticalAlign=top;spacingLeft=4;spacingRight=4;whiteSpace=wrap;overflow=hidden;rotatable=0;points=[[0,0.5],[1,0.5]];portConstraint=eastwest;fontFamily=Helvetica;dashed=1;perimeterSpacing=0;strokeWidth=1;dashPattern=1 2;" parent="78961159f06e98e8-30" vertex="1">
          <mxGeometry y="216" width="170" height="26" as="geometry" />
        </mxCell>
      </root>
    </mxGraphModel>
  </diagram>
</mxfile>
